<svg width="134" height="37" viewBox="0 0 134 37" fill="none" xmlns="http://www.w3.org/2000/svg">
<g clip-path="url(#clip0_2309_6485)">
<path d="M23.5444 23.5402C22.4847 25.8914 20.7133 27.8508 18.502 29.1383C16.6826 30.202 14.5713 30.8058 12.312 30.8058C10.5166 30.8058 8.80914 30.4219 7.26964 29.7262C3.083 27.8508 0.143953 23.7041 0.0039987 18.8577C0 18.7377 0 18.6218 0 18.5018C0 18.3818 0 18.2619 0.0039987 18.1459C0.139955 13.2995 3.083 9.15283 7.26564 7.27344C6.57387 8.81294 6.18999 10.5164 6.18999 12.3118C6.18999 14.5671 6.79779 16.6824 7.85745 18.5018C9.14503 20.7131 11.1044 22.4845 13.4556 23.5402C14.9951 24.2319 16.6986 24.6158 18.498 24.6158C20.2974 24.6158 22.0049 24.2319 23.5444 23.5402Z" fill="white"/>
<path d="M37.0002 18.5015C37.0002 18.6214 37.0002 18.7414 36.9962 18.8573C36.8603 23.7038 33.9172 27.8504 29.7386 29.7298C30.4304 28.1903 30.8142 26.4829 30.8142 24.6875C30.8142 22.4322 30.2064 20.3169 29.1468 18.4975C27.8592 16.2862 25.8998 14.5108 23.5486 13.4551C22.0091 12.7633 20.3056 12.3794 18.5062 12.3794C16.7068 12.3794 15.0034 12.7633 13.4639 13.4551C14.5195 11.1039 16.295 9.14849 18.5022 7.85691C20.3216 6.79326 22.433 6.18945 24.6922 6.18945C26.4916 6.18945 28.1991 6.57333 29.7386 7.2691C33.9172 9.14849 36.8603 13.2951 36.9962 18.1416C36.9962 18.2615 37.0002 18.3815 37.0002 18.5015Z" fill="white"/>
<path d="M29.7343 7.26964C28.1948 6.57787 26.4874 6.18999 24.6879 6.18999C22.4327 6.18999 20.3174 6.7978 18.4979 7.85745C16.2867 9.14503 14.5152 11.1044 13.4596 13.4556C12.7678 14.9951 12.3799 16.7026 12.3799 18.498C12.3799 20.2934 12.7638 22.0009 13.4556 23.5364C11.1043 22.4807 9.14898 20.7053 7.8574 18.498C6.79375 16.6786 6.18994 14.5673 6.18994 12.308C6.18994 10.5126 6.57382 8.80515 7.26559 7.26964C9.14498 3.087 13.2956 0.143953 18.1421 0.0039987C18.262 0 18.382 0 18.5019 0C18.6219 0 18.7419 0 18.8578 0.0039987C23.7083 0.143953 27.8549 3.087 29.7343 7.26964Z" fill="#10C581"/>
<path d="M30.8099 24.6873C30.8099 26.4827 30.426 28.1901 29.7342 29.7296C27.8549 33.9123 23.7042 36.8553 18.8578 36.9913C18.7378 36.9953 18.6179 36.9953 18.5019 36.9953C18.3819 36.9953 18.262 36.9953 18.146 36.9913C13.2996 36.8553 9.14892 33.9123 7.26953 29.7296C8.80903 30.4214 10.5125 30.8093 12.3119 30.8093C14.5672 30.8093 16.6825 30.2015 18.5019 29.1418C20.7132 27.8542 22.4886 25.8949 23.5443 23.5436C24.236 22.0041 24.6199 20.3007 24.6199 18.5053C24.6199 16.7098 24.236 14.9984 23.5443 13.4629C25.8955 14.5185 27.8549 16.294 29.1424 18.5053C30.2021 20.3167 30.8099 22.432 30.8099 24.6873Z" fill="#10C581"/>
</g>
<path d="M121.631 27.8517C121.954 28.0625 122.305 28.2486 122.685 28.4102C123.064 28.5717 123.457 28.7052 123.865 28.8105C124.279 28.9159 124.7 28.9932 125.129 29.0423C125.557 29.0985 125.982 29.1266 126.404 29.1266C127.837 29.1266 128.94 28.8176 129.712 28.1994C130.492 27.5883 130.882 26.6681 130.882 25.4389V25.0174C130.608 25.2071 130.299 25.3827 129.955 25.5443C129.617 25.6988 129.252 25.8323 128.859 25.9446C128.473 26.057 128.062 26.1448 127.626 26.2081C127.198 26.2642 126.762 26.2923 126.32 26.2923C125.371 26.2923 124.521 26.1554 123.77 25.8814C123.025 25.6005 122.393 25.193 121.873 24.6592C121.36 24.1183 120.967 23.4545 120.693 22.6678C120.419 21.8811 120.282 20.982 120.282 19.9705V13.8594H123.39V19.1065C123.39 20.6097 123.675 21.7195 124.244 22.436C124.82 23.1455 125.726 23.5002 126.962 23.5002C127.833 23.5002 128.602 23.3492 129.27 23.0471C129.944 22.7381 130.481 22.3447 130.882 21.8671V13.8594H134.001V24.8699C134.001 26.057 133.832 27.0861 133.495 27.9571C133.158 28.8351 132.666 29.5621 132.02 30.1381C131.381 30.7141 130.594 31.1426 129.66 31.4236C128.725 31.7116 127.665 31.8556 126.478 31.8556C125.319 31.8556 124.237 31.7326 123.232 31.4868C122.228 31.2409 121.308 30.9073 120.472 30.4858L121.631 27.8517Z" fill="white"/>
<path d="M110.693 16.1983H108.564V13.8592H110.693C110.693 13.0163 110.812 12.2682 111.051 11.6149C111.29 10.9546 111.634 10.3997 112.084 9.95017C112.54 9.49359 113.092 9.14589 113.738 8.90707C114.391 8.66824 115.125 8.54883 115.94 8.54883C116.509 8.54883 117.067 8.60502 117.615 8.71741C118.163 8.82277 118.648 8.97731 119.069 9.18101L117.963 11.8046C117.794 11.7062 117.556 11.6149 117.246 11.5306C116.944 11.4463 116.611 11.4042 116.246 11.4042C115.529 11.4042 114.95 11.6079 114.507 12.0153C114.071 12.4157 113.84 13.0303 113.812 13.8592H117.742V16.1983H113.812V26.2922H110.693V16.1983Z" fill="white"/>
<path d="M100.441 16.1981H97.4385V13.8591H100.441V9.99219H103.56V13.8591H106.563V16.1981H103.56V26.292H100.441V16.1981Z" fill="white"/>
<path d="M87.4596 20.0747L82.3179 13.8477H86.3006L89.4194 17.6408L92.3801 13.8477H96.2681L91.4319 20.0641L96.5736 26.2912H92.5909L89.3773 22.4032L86.3955 26.2912H82.5075L87.4596 20.0747Z" fill="white"/>
<path d="M65.6089 20.0343C65.6089 19.1914 65.781 18.3871 66.1252 17.6214C66.4694 16.8488 66.9646 16.1674 67.6108 15.5774C68.257 14.9873 69.0473 14.5167 69.9815 14.1655C70.9228 13.8143 71.9904 13.6387 73.1846 13.6387C74.3717 13.6387 75.4394 13.8178 76.3876 14.176C77.3429 14.5272 78.1507 15.0119 78.811 15.6301C79.4783 16.2482 79.9876 16.9752 80.3388 17.8111C80.697 18.647 80.8762 19.5426 80.8762 20.4979C80.8762 20.6173 80.8726 20.7472 80.8656 20.8877C80.8656 21.0212 80.8586 21.1441 80.8445 21.2565H69.0859C69.2194 21.6288 69.4336 21.9695 69.7286 22.2785C70.0307 22.5876 70.4065 22.8545 70.856 23.0793C71.3056 23.3041 71.8254 23.4797 72.4154 23.6061C73.0055 23.7255 73.6587 23.7852 74.3752 23.7852C75.0917 23.7852 75.8046 23.7115 76.5141 23.564C77.2235 23.4094 77.9014 23.2163 78.5476 22.9845L79.6012 25.3657C79.1938 25.5554 78.7794 25.7239 78.3579 25.8714C77.9435 26.0119 77.508 26.1313 77.0514 26.2297C76.6019 26.321 76.1277 26.3912 75.629 26.4404C75.1373 26.4896 74.6175 26.5142 74.0696 26.5142C72.6718 26.5142 71.4461 26.3456 70.3924 26.0084C69.3388 25.6713 68.4572 25.2112 67.7478 24.6282C67.0383 24.0451 66.5045 23.3603 66.1462 22.5736C65.788 21.7868 65.6089 20.9404 65.6089 20.0343ZM77.5677 18.8226C77.4553 18.4784 77.2797 18.1588 77.0409 17.8638C76.8091 17.5617 76.5176 17.3018 76.1664 17.0841C75.8152 16.8593 75.4078 16.6837 74.9441 16.5573C74.4805 16.4308 73.9713 16.3676 73.4164 16.3676C72.8263 16.3676 72.289 16.4343 71.8043 16.5678C71.3196 16.7013 70.8947 16.8804 70.5294 17.1052C70.1641 17.3299 69.8586 17.5898 69.6127 17.8848C69.3739 18.1799 69.1983 18.4924 69.0859 18.8226H77.5677Z" fill="white"/>
<path d="M46.8428 9.82422H55.2192C56.4836 9.82422 57.5794 9.95768 58.5066 10.2246C59.4338 10.4845 60.2029 10.8638 60.8141 11.3625C61.4252 11.8613 61.8782 12.4689 62.1733 13.1853C62.4753 13.9018 62.6263 14.7131 62.6263 15.6192C62.6263 16.2304 62.5526 16.8134 62.4051 17.3683C62.2575 17.9162 62.0293 18.4219 61.7202 18.8855C61.4181 19.3491 61.0353 19.7636 60.5717 20.1288C60.1081 20.4871 59.5637 20.7856 58.9386 21.0244L62.521 26.2926H58.4328L55.3351 21.6145H55.2403L50.1828 21.6039V26.2926H46.8428V9.82422ZM55.3035 18.717C55.9357 18.717 56.4871 18.6432 56.9577 18.4957C57.4354 18.3482 57.8323 18.141 58.1483 17.874C58.4715 17.6071 58.7103 17.284 58.8648 16.9047C59.0264 16.5184 59.1072 16.0899 59.1072 15.6192C59.1072 14.6991 58.7911 13.9896 58.1589 13.4909C57.5267 12.9851 56.5749 12.7323 55.3035 12.7323H50.1828V18.717H55.3035Z" fill="white"/>
<defs>
<clipPath id="clip0_2309_6485">
<rect width="37" height="37" fill="white"/>
</clipPath>
</defs>
</svg>
