<svg width="134" height="37" viewBox="0 0 134 37" fill="none" xmlns="http://www.w3.org/2000/svg">
<g clip-path="url(#clip0_2309_4611)">
<path d="M23.5444 23.5402C22.4847 25.8914 20.7133 27.8508 18.502 29.1383C16.6826 30.202 14.5713 30.8058 12.312 30.8058C10.5166 30.8058 8.80914 30.4219 7.26964 29.7262C3.083 27.8508 0.143953 23.7041 0.0039987 18.8577C0 18.7377 0 18.6218 0 18.5018C0 18.3818 0 18.2619 0.0039987 18.1459C0.139955 13.2995 3.083 9.15283 7.26564 7.27344C6.57387 8.81294 6.18999 10.5164 6.18999 12.3118C6.18999 14.5671 6.79779 16.6824 7.85745 18.5018C9.14503 20.7131 11.1044 22.4845 13.4556 23.5402C14.9951 24.2319 16.6986 24.6158 18.498 24.6158C20.2974 24.6158 22.0049 24.2319 23.5444 23.5402Z" fill="white"/>
<path d="M37.0002 18.5019C37.0002 18.6219 37.0002 18.7419 36.9962 18.8578C36.8603 23.7043 33.9172 27.8509 29.7386 29.7303C30.4304 28.1908 30.8142 26.4834 30.8142 24.6879C30.8142 22.4327 30.2064 20.3174 29.1468 18.4979C27.8592 16.2867 25.8998 14.5112 23.5486 13.4556C22.0091 12.7638 20.3056 12.3799 18.5062 12.3799C16.7068 12.3799 15.0034 12.7638 13.4639 13.4556C14.5195 11.1043 16.295 9.14898 18.5022 7.8574C20.3216 6.79375 22.433 6.18994 24.6922 6.18994C26.4916 6.18994 28.1991 6.57382 29.7386 7.26959C33.9172 9.14898 36.8603 13.2956 36.9962 18.1421C36.9962 18.262 37.0002 18.382 37.0002 18.5019Z" fill="white"/>
<path d="M29.7348 7.26964C28.1953 6.57787 26.4878 6.18999 24.6884 6.18999C22.4332 6.18999 20.3178 6.7978 18.4984 7.85745C16.2872 9.14503 14.5157 11.1044 13.4601 13.4556C12.7683 14.9951 12.3804 16.7026 12.3804 18.498C12.3804 20.2934 12.7643 22.0009 13.4561 23.5364C11.1048 22.4807 9.14947 20.7053 7.85789 18.498C6.79423 16.6786 6.19043 14.5673 6.19043 12.308C6.19043 10.5126 6.57431 8.80515 7.26608 7.26964C9.14547 3.087 13.2961 0.143953 18.1426 0.0039987C18.2625 0 18.3825 0 18.5024 0C18.6224 0 18.7424 0 18.8583 0.0039987C23.7087 0.143953 27.8554 3.087 29.7348 7.26964Z" fill="#10C581"/>
<path d="M30.8099 24.6882C30.8099 26.4836 30.426 28.1911 29.7342 29.7306C27.8549 33.9132 23.7042 36.8563 18.8578 36.9922C18.7378 36.9962 18.6179 36.9962 18.5019 36.9962C18.3819 36.9962 18.262 36.9962 18.146 36.9922C13.2996 36.8563 9.14892 33.9132 7.26953 29.7306C8.80903 30.4224 10.5125 30.8102 12.3119 30.8102C14.5672 30.8102 16.6825 30.2024 18.5019 29.1428C20.7132 27.8552 22.4886 25.8958 23.5443 23.5446C24.236 22.0051 24.6199 20.3016 24.6199 18.5062C24.6199 16.7108 24.236 14.9994 23.5443 13.4639C25.8955 14.5195 27.8549 16.2949 29.1424 18.5062C30.2021 20.3176 30.8099 22.433 30.8099 24.6882Z" fill="#10C581"/>
</g>
<path d="M121.631 27.8512C121.954 28.062 122.305 28.2481 122.685 28.4097C123.064 28.5712 123.457 28.7047 123.865 28.8101C124.279 28.9154 124.7 28.9927 125.129 29.0419C125.557 29.0981 125.982 29.1262 126.404 29.1262C127.837 29.1262 128.94 28.8171 129.712 28.1989C130.492 27.5878 130.882 26.6677 130.882 25.4384V25.017C130.608 25.2066 130.299 25.3822 129.955 25.5438C129.617 25.6983 129.252 25.8318 128.859 25.9442C128.473 26.0565 128.062 26.1443 127.626 26.2076C127.198 26.2638 126.762 26.2919 126.32 26.2919C125.371 26.2919 124.521 26.1549 123.77 25.8809C123.025 25.6 122.393 25.1926 121.873 24.6587C121.36 24.1178 120.967 23.454 120.693 22.6673C120.419 21.8806 120.282 20.9815 120.282 19.97V13.8589H123.39V19.106C123.39 20.6092 123.675 21.7191 124.244 22.4355C124.82 23.145 125.726 23.4997 126.962 23.4997C127.833 23.4997 128.602 23.3487 129.27 23.0466C129.944 22.7376 130.481 22.3442 130.882 21.8666V13.8589H134.001V24.8694C134.001 26.0565 133.832 27.0856 133.495 27.9566C133.158 28.8346 132.666 29.5617 132.02 30.1376C131.381 30.7136 130.594 31.1421 129.66 31.4231C128.725 31.7111 127.665 31.8551 126.478 31.8551C125.319 31.8551 124.237 31.7322 123.232 31.4863C122.228 31.2405 121.308 30.9068 120.472 30.4853L121.631 27.8512Z" fill="white"/>
<path d="M110.693 16.1983H108.564V13.8592H110.693C110.693 13.0163 110.812 12.2682 111.051 11.6149C111.29 10.9546 111.634 10.3997 112.084 9.95017C112.54 9.49359 113.092 9.14589 113.738 8.90707C114.391 8.66824 115.125 8.54883 115.94 8.54883C116.509 8.54883 117.067 8.60502 117.615 8.71741C118.163 8.82277 118.648 8.97731 119.069 9.18101L117.963 11.8046C117.794 11.7062 117.556 11.6149 117.246 11.5306C116.944 11.4463 116.611 11.4042 116.246 11.4042C115.529 11.4042 114.95 11.6079 114.507 12.0153C114.071 12.4157 113.84 13.0303 113.812 13.8592H117.742V16.1983H113.812V26.2922H110.693V16.1983Z" fill="white"/>
<path d="M100.441 16.1981H97.4385V13.8591H100.441V9.99219H103.56V13.8591H106.563V16.1981H103.56V26.292H100.441V16.1981Z" fill="white"/>
<path d="M87.4601 20.0757L82.3184 13.8486H86.3011L89.4199 17.6417L92.3806 13.8486H96.2686L91.4324 20.0651L96.5741 26.2921H92.5914L89.3778 22.4042L86.396 26.2921H82.508L87.4601 20.0757Z" fill="white"/>
<path d="M65.6084 20.0333C65.6084 19.1904 65.7805 18.3861 66.1247 17.6205C66.4689 16.8478 66.9641 16.1664 67.6103 15.5764C68.2566 14.9864 69.0468 14.5157 69.981 14.1645C70.9223 13.8133 71.99 13.6377 73.1841 13.6377C74.3712 13.6377 75.4389 13.8168 76.3872 14.1751C77.3425 14.5263 78.1502 15.0109 78.8105 15.6291C79.4778 16.2472 79.9871 16.9742 80.3383 17.8101C80.6965 18.646 80.8757 19.5416 80.8757 20.4969C80.8757 20.6163 80.8722 20.7463 80.8651 20.8867C80.8651 21.0202 80.8581 21.1431 80.8441 21.2555H69.0854C69.2189 21.6278 69.4331 21.9685 69.7281 22.2776C70.0302 22.5866 70.406 22.8535 70.8555 23.0783C71.3051 23.3031 71.8249 23.4787 72.4149 23.6051C73.005 23.7246 73.6582 23.7843 74.3747 23.7843C75.0912 23.7843 75.8041 23.7105 76.5136 23.563C77.223 23.4085 77.9009 23.2153 78.5471 22.9835L79.6008 25.3647C79.1933 25.5544 78.7789 25.723 78.3575 25.8705C77.943 26.011 77.5075 26.1304 77.0509 26.2287C76.6014 26.32 76.1273 26.3903 75.6285 26.4394C75.1368 26.4886 74.617 26.5132 74.0691 26.5132C72.6713 26.5132 71.4456 26.3446 70.3919 26.0074C69.3383 25.6703 68.4567 25.2102 67.7473 24.6272C67.0378 24.0442 66.504 23.3593 66.1458 22.5726C65.7875 21.7859 65.6084 20.9394 65.6084 20.0333ZM77.5672 18.8216C77.4548 18.4774 77.2792 18.1578 77.0404 17.8628C76.8086 17.5608 76.5171 17.3009 76.1659 17.0831C75.8147 16.8583 75.4073 16.6827 74.9437 16.5563C74.4801 16.4298 73.9708 16.3666 73.4159 16.3666C72.8258 16.3666 72.2885 16.4334 71.8038 16.5668C71.3191 16.7003 70.8942 16.8794 70.5289 17.1042C70.1636 17.329 69.8581 17.5889 69.6122 17.8839C69.3734 18.1789 69.1978 18.4915 69.0854 18.8216H77.5672Z" fill="white"/>
<path d="M46.8428 9.82373H55.2192C56.4836 9.82373 57.5794 9.95719 58.5066 10.2241C59.4338 10.484 60.2029 10.8633 60.8141 11.362C61.4252 11.8608 61.8782 12.4684 62.1733 13.1848C62.4753 13.9013 62.6263 14.7126 62.6263 15.6188C62.6263 16.2299 62.5526 16.8129 62.4051 17.3678C62.2575 17.9157 62.0293 18.4214 61.7202 18.885C61.4181 19.3487 61.0353 19.7631 60.5717 20.1283C60.1081 20.4866 59.5637 20.7851 58.9386 21.0239L62.521 26.2921H58.4328L55.3351 21.614H55.2403L50.1828 21.6034V26.2921H46.8428V9.82373ZM55.3035 18.7165C55.9357 18.7165 56.4871 18.6427 56.9577 18.4952C57.4354 18.3477 57.8323 18.1405 58.1483 17.8736C58.4715 17.6066 58.7103 17.2835 58.8648 16.9042C59.0264 16.5179 59.1072 16.0894 59.1072 15.6188C59.1072 14.6986 58.7911 13.9891 58.1589 13.4904C57.5267 12.9847 56.5749 12.7318 55.3035 12.7318H50.1828V18.7165H55.3035Z" fill="white"/>
<defs>
<clipPath id="clip0_2309_4611">
<rect width="37" height="37" fill="white"/>
</clipPath>
</defs>
</svg>
